<svg width="1440" height="900" viewBox="0 0 1440 900" fill="none" xmlns="http://www.w3.org/2000/svg">
  <rect width="1440" height="900" fill="url(#paint0_radial)"/>
  <g filter="url(#glow)">
    <path d="M240 200C240 182.327 254.327 168 272 168H1168C1185.67 168 1200 182.327 1200 200V520C1200 537.673 1185.67 552 1168 552H272C254.327 552 240 537.673 240 520V200Z" fill="url(#paint1_linear)" opacity="0.85"/>
    <rect x="300" y="222" width="840" height="276" rx="42" fill="url(#paint2_radial)" opacity="0.85"/>
  </g>
  <g opacity="0.35">
    <circle cx="320" cy="650" r="120" fill="url(#paint3_radial)"/>
    <circle cx="1120" cy="630" r="160" fill="url(#paint4_radial)"/>
  </g>
  <g opacity="0.55">
    <path d="M256 602H1184" stroke="#FFDEE2" stroke-width="4" stroke-dasharray="24 24"/>
    <path d="M256 670H1184" stroke="#FFDEE2" stroke-width="4" stroke-dasharray="24 24" opacity="0.5"/>
    <path d="M256 738H1184" stroke="#FFDEE2" stroke-width="4" stroke-dasharray="24 24" opacity="0.25"/>
  </g>
  <g opacity="0.65" transform="translate(0, 20)">
    <g transform="translate(360, 250)">
      <circle cx="86" cy="86" r="74" fill="#1D080B" stroke="#FF6B81" stroke-width="6"/>
      <circle cx="86" cy="86" r="18" fill="#FF6B81"/>
      <circle cx="46" cy="86" r="12" fill="#FF6B81"/>
      <circle cx="126" cy="86" r="12" fill="#FF6B81"/>
      <circle cx="86" cy="46" r="12" fill="#FF6B81"/>
      <circle cx="86" cy="126" r="12" fill="#FF6B81"/>
    </g>
    <g transform="translate(940, 240)">
      <rect x="0" y="0" width="180" height="180" rx="24" fill="#1D080B" stroke="#FF9AA2" stroke-width="6"/>
      <path d="M56 44L124 90L56 136V44Z" fill="#FF9AA2"/>
    </g>
  </g>
  <defs>
    <filter id="glow" x="140" y="108" width="1160" height="544" filterUnits="userSpaceOnUse" color-interpolation-filters="sRGB">
      <feGaussianBlur stdDeviation="40" result="coloredBlur"/>
      <feMerge>
        <feMergeNode in="coloredBlur"/>
        <feMergeNode in="SourceGraphic"/>
      </feMerge>
    </filter>
    <radialGradient id="paint0_radial" cx="0" cy="0" r="1" gradientUnits="userSpaceOnUse" gradientTransform="translate(720 180) rotate(90) scale(900 1440)">
      <stop stop-color="#381012"/>
      <stop offset="0.42" stop-color="#110205"/>
      <stop offset="1" stop-color="#050203"/>
    </radialGradient>
    <linearGradient id="paint1_linear" x1="240" y1="168" x2="1213.24" y2="584.217" gradientUnits="userSpaceOnUse">
      <stop stop-color="#B31217"/>
      <stop offset="0.52" stop-color="#1D0406"/>
      <stop offset="1" stop-color="#4A0A0F"/>
    </linearGradient>
    <radialGradient id="paint2_radial" cx="0" cy="0" r="1" gradientUnits="userSpaceOnUse" gradientTransform="translate(720 360) rotate(90) scale(180 420)">
      <stop stop-color="#310708"/>
      <stop offset="1" stop-color="#060203"/>
    </radialGradient>
    <radialGradient id="paint3_radial" cx="0" cy="0" r="1" gradientUnits="userSpaceOnUse" gradientTransform="translate(320 650) rotate(90) scale(120)">
      <stop stop-color="#FF4D6D" stop-opacity="0.72"/>
      <stop offset="1" stop-color="#30070A" stop-opacity="0"/>
    </radialGradient>
    <radialGradient id="paint4_radial" cx="0" cy="0" r="1" gradientUnits="userSpaceOnUse" gradientTransform="translate(1120 630) rotate(90) scale(160)">
      <stop stop-color="#F72585" stop-opacity="0.6"/>
      <stop offset="1" stop-color="#1A0306" stop-opacity="0"/>
    </radialGradient>
  </defs>
</svg>
